<svg width="512" height="387" viewBox="0 0 512 387" fill="none" xmlns="http://www.w3.org/2000/svg">
<path fill-rule="evenodd" clip-rule="evenodd" d="M184.889 0C287.022 0 369.778 61.8509 369.778 138.214C369.778 214.578 287.022 276.429 184.889 276.429C148.444 276.429 114.578 268.395 85.9555 254.833C66.5778 265.803 39.6444 276.429 7.11111 276.429C4.26667 276.429 1.77778 274.874 0.622222 272.282C-0.533333 269.691 0 266.754 1.95556 264.767C2.22222 264.508 21.8667 243.775 33.7778 217.688C12.5333 195.141 0 167.844 0 138.214C0 61.8509 82.7556 0 184.889 0Z" fill="#A37CFF"/>
<path d="M478.222 328.259C499.467 305.799 512 278.415 512 248.786C512 190.995 464.444 141.497 397.067 120.851C397.867 126.552 398.222 132.34 398.222 138.214C398.222 229.695 302.489 304.071 184.889 304.071C175.289 304.071 165.956 303.38 156.711 302.43C184.711 352.101 250.489 387 327.111 387C363.556 387 397.422 379.053 426.044 365.404C445.422 376.375 472.356 387 504.889 387C507.733 387 510.311 385.359 511.378 382.854C512.533 380.348 512 377.411 510.044 375.338C509.778 375.079 490.133 354.433 478.222 328.259Z" fill="#8969D2"/>
</svg>
